<?xml version="1.0" encoding="UTF-8"?><svg id="b" xmlns="http://www.w3.org/2000/svg" viewBox="0 0 279.07 92.49"><g id="c"><g><g><g><path d="M.5,9.08c0-.22-.03-1.97,1.09-2.65,.47-.28,.99-.29,1.85-.29,.86,0,1.37,0,1.83,.26,1.14,.66,1.11,2.46,1.11,2.68H.5Z" fill="#fff" stroke="#000" stroke-miterlimit="10"/><polyline points=".5 8.58 .5 68.56 3.44 75.31 6.38 68.48 6.38 8.58" fill="#fff" stroke="#000" stroke-miterlimit="10"/><line x1=".5" y1="15.21" x2="6.38" y2="15.26" fill="none" stroke="#000" stroke-miterlimit="10"/><line x1=".45" y1="22.74" x2="6.33" y2="22.79" fill="none" stroke="#000" stroke-miterlimit="10"/><line x1=".44" y1="24.38" x2="6.32" y2="24.42" fill="none" stroke="#000" stroke-miterlimit="10"/><line x1="7.61" y1="13.82" x2="7.53" y2="33.73" fill="none" stroke="#000" stroke-linecap="round" stroke-linejoin="round"/><line x1="6.38" y1="16.39" x2="7.91" y2="16.4" fill="none" stroke="#000" stroke-miterlimit="10"/><line x1="6.34" y1="22.14" x2="7.87" y2="22.15" fill="none" stroke="#000" stroke-miterlimit="10"/><line x1=".5" y1="68.31" x2="6.38" y2="68.35" fill="none" stroke="#000" stroke-miterlimit="10"/><polygon points="3.46 75.12 2.7 73.74 4.25 73.76 3.46 75.12" stroke="#000" stroke-miterlimit="10" stroke-width=".5"/></g><polygon points="16.48 1.37 14.29 6.22 16.63 11.28 18.98 6.22 16.48 1.37" fill="#f2b84b" stroke="#000" stroke-miterlimit="10"/><g><path d="M11.09,6.7c-.16,0-.29-.13-.29-.29V.41c0-.16,.13-.29,.29-.29s.29,.13,.29,.29V6.41c0,.16-.13,.29-.29,.29Z" stroke="#000" stroke-miterlimit="10" stroke-width=".25"/><path d="M13.85,3.47h0l-5.69-.08c-.16,0-.28-.13-.28-.29,0-.16,.13-.28,.29-.28h0l5.69,.08c.16,0,.28,.13,.28,.29,0,.16-.13,.28-.29,.28Z" stroke="#000" stroke-miterlimit="10" stroke-width=".25"/><path d="M8.93,5.64c-.07,0-.14-.02-.19-.08-.12-.11-.12-.29-.02-.4L12.72,.8c.11-.12,.29-.12,.4-.02,.12,.11,.12,.29,.02,.4l-4,4.36c-.06,.06-.13,.09-.21,.09Z" stroke="#000" stroke-miterlimit="10" stroke-width=".25"/><path d="M12.93,5.64c-.08,0-.15-.03-.21-.09L8.72,1.19c-.11-.12-.1-.3,.02-.4,.12-.11,.3-.1,.4,.02l4,4.36c.11,.12,.1,.3-.02,.4-.05,.05-.12,.08-.19,.08Z" stroke="#000" stroke-miterlimit="10" stroke-width=".25"/></g><circle cx="11.85" cy="9.52" r="1.66" fill="#8fcbd9" stroke="#000" stroke-miterlimit="10"/></g><g><path d="M21.09,38.83c-.33-.35-.5-.77-.5-1.28,0-.21,.07-.48,.2-.8L30.99,12.67c.21-.48,.51-.87,.9-1.18,.39-.31,.86-.46,1.42-.46h.4c.56,0,1.03,.15,1.42,.46,.39,.31,.69,.7,.9,1.18l10.2,24.08c.13,.32,.2,.59,.2,.8,0,.51-.17,.93-.5,1.28s-.77,.52-1.3,.52c-.37,0-.71-.1-1.02-.3-.31-.2-.54-.47-.7-.82l-2.6-6.24h-13.6l-2.6,6.24c-.16,.35-.39,.62-.7,.82-.31,.2-.65,.3-1.02,.3-.53,0-.97-.17-1.3-.52Zm7.02-10.16h10.8l-5.4-13-5.4,13Z" fill="#fff" stroke="#fff" stroke-linecap="round" stroke-miterlimit="10" stroke-width="2"/><path d="M52.97,36.77c-1.83-1.85-2.74-4.46-2.74-7.82,0-1.89,.35-3.64,1.04-5.24,.69-1.6,1.76-2.89,3.2-3.88,1.44-.99,3.21-1.48,5.32-1.48,1.97,0,3.68,.46,5.12,1.38s2.53,2.15,3.28,3.68c.75,1.53,1.12,3.21,1.12,5.02,0,.51-.17,.93-.5,1.28-.33,.35-.78,.52-1.34,.52h-13.56c.21,1.87,.91,3.32,2.08,4.36,1.17,1.04,2.81,1.56,4.92,1.56,1.12,0,2.1-.11,2.94-.32s1.66-.52,2.46-.92c.21-.11,.45-.16,.72-.16,.43,0,.8,.15,1.12,.44,.32,.29,.48,.67,.48,1.12,0,.59-.35,1.08-1.04,1.48-1.04,.59-2.07,1.03-3.08,1.32-1.01,.29-2.32,.44-3.92,.44-3.25,0-5.79-.93-7.62-2.78Zm12.74-9.5c-.08-1.31-.42-2.4-1.02-3.28-.6-.88-1.34-1.53-2.22-1.94-.88-.41-1.77-.62-2.68-.62s-1.8,.21-2.68,.62c-.88,.41-1.61,1.06-2.2,1.94-.59,.88-.92,1.97-1,3.28h11.8Z" fill="#fff" stroke="#fff" stroke-linecap="round" stroke-miterlimit="10" stroke-width="2"/><path d="M73.79,37.75c-.45-.32-.68-.76-.68-1.32,0-.43,.15-.8,.44-1.12,.29-.32,.67-.48,1.12-.48,.24,0,.48,.05,.72,.16,.85,.37,1.71,.67,2.56,.88,.85,.21,1.81,.32,2.88,.32,2.96,0,4.44-.95,4.44-2.84,0-.61-.34-1.08-1.02-1.4-.68-.32-1.79-.68-3.34-1.08-1.57-.37-2.87-.76-3.9-1.16-1.03-.4-1.91-1.01-2.64-1.82-.73-.81-1.1-1.89-1.1-3.22,0-1.87,.67-3.39,2.02-4.56,1.35-1.17,3.27-1.76,5.78-1.76,2.05,0,3.99,.33,5.8,1,.37,.11,.66,.31,.86,.6,.2,.29,.3,.6,.3,.92,0,.43-.15,.8-.46,1.12-.31,.32-.69,.48-1.14,.48-.13,0-.31-.03-.52-.08-1.55-.48-3.07-.72-4.56-.72s-2.57,.26-3.38,.78c-.81,.52-1.22,1.19-1.22,2.02s.37,1.39,1.12,1.76c.75,.37,1.91,.73,3.48,1.08,1.57,.4,2.85,.79,3.84,1.18,.99,.39,1.83,.99,2.54,1.82,.71,.83,1.06,1.93,1.06,3.32,0,1.71-.67,3.12-2.02,4.24-1.35,1.12-3.25,1.68-5.7,1.68-2.67,0-5.09-.6-7.28-1.8Z" fill="#fff" stroke="#fff" stroke-linecap="round" stroke-miterlimit="10" stroke-width="2"/><path d="M95.07,34.27v-12.4h-2.84c-.21,0-.39-.07-.54-.22-.15-.15-.22-.33-.22-.54,0-.27,.12-.49,.36-.68l5.44-5.32c.24-.24,.47-.36,.68-.36s.39,.08,.54,.24c.15,.16,.22,.35,.22,.56v3.2h4.52c.45,0,.83,.15,1.12,.44,.29,.29,.44,.67,.44,1.12,0,.43-.15,.79-.44,1.1-.29,.31-.67,.46-1.12,.46h-4.52v12.08c0,1.04,.25,1.7,.74,1.98,.49,.28,1.11,.42,1.86,.42,.53,0,1.07-.08,1.6-.24,.11-.03,.22-.05,.34-.08,.12-.03,.27-.04,.46-.04,.37,0,.71,.14,1,.42,.29,.28,.44,.62,.44,1.02,0,.61-.31,1.08-.92,1.4-1.04,.48-2.15,.72-3.32,.72-3.89,0-5.84-1.76-5.84-5.28Z" fill="#fff" stroke="#fff" stroke-linecap="round" stroke-miterlimit="10" stroke-width="2"/><path d="M110.03,38.83c-.35-.35-.52-.77-.52-1.28V11.59c0-.51,.17-.94,.52-1.3,.35-.36,.77-.54,1.28-.54s.94,.18,1.3,.54c.36,.36,.54,.79,.54,1.3v10.44c1.01-1.12,2.11-2.01,3.28-2.68,1.17-.67,2.56-1,4.16-1,1.47,0,2.74,.35,3.82,1.04s1.91,1.64,2.48,2.84c.57,1.2,.86,2.52,.86,3.96v11.36c0,.51-.18,.93-.54,1.28-.36,.35-.79,.52-1.3,.52s-.93-.17-1.28-.52-.52-.77-.52-1.28v-10.96c0-3.25-1.47-4.88-4.4-4.88-1.33,0-2.53,.35-3.58,1.04-1.05,.69-2.05,1.63-2.98,2.8v12c0,.51-.18,.93-.54,1.28-.36,.35-.79,.52-1.3,.52s-.93-.17-1.28-.52Z" fill="#fff" stroke="#fff" stroke-linecap="round" stroke-miterlimit="10" stroke-width="2"/><path d="M135.73,36.77c-1.83-1.85-2.74-4.46-2.74-7.82,0-1.89,.35-3.64,1.04-5.24,.69-1.6,1.76-2.89,3.2-3.88,1.44-.99,3.21-1.48,5.32-1.48,1.97,0,3.68,.46,5.12,1.38s2.53,2.15,3.28,3.68c.75,1.53,1.12,3.21,1.12,5.02,0,.51-.17,.93-.5,1.28-.33,.35-.78,.52-1.34,.52h-13.56c.21,1.87,.91,3.32,2.08,4.36,1.17,1.04,2.81,1.56,4.92,1.56,1.12,0,2.1-.11,2.94-.32s1.66-.52,2.46-.92c.21-.11,.45-.16,.72-.16,.43,0,.8,.15,1.12,.44,.32,.29,.48,.67,.48,1.12,0,.59-.35,1.08-1.04,1.48-1.04,.59-2.07,1.03-3.08,1.32-1.01,.29-2.32,.44-3.92,.44-3.25,0-5.79-.93-7.62-2.78Zm12.74-9.5c-.08-1.31-.42-2.4-1.02-3.28-.6-.88-1.34-1.53-2.22-1.94-.88-.41-1.77-.62-2.68-.62s-1.8,.21-2.68,.62c-.88,.41-1.61,1.06-2.2,1.94-.59,.88-.92,1.97-1,3.28h11.8Z" fill="#fff" stroke="#fff" stroke-linecap="round" stroke-miterlimit="10" stroke-width="2"/><path d="M158.43,34.27v-12.4h-2.84c-.21,0-.39-.07-.54-.22-.15-.15-.22-.33-.22-.54,0-.27,.12-.49,.36-.68l5.44-5.32c.24-.24,.47-.36,.68-.36s.39,.08,.54,.24c.15,.16,.22,.35,.22,.56v3.2h4.52c.45,0,.83,.15,1.12,.44,.29,.29,.44,.67,.44,1.12,0,.43-.15,.79-.44,1.1-.29,.31-.67,.46-1.12,.46h-4.52v12.08c0,1.04,.25,1.7,.74,1.98,.49,.28,1.11,.42,1.86,.42,.53,0,1.07-.08,1.6-.24,.11-.03,.22-.05,.34-.08,.12-.03,.27-.04,.46-.04,.37,0,.71,.14,1,.42,.29,.28,.44,.62,.44,1.02,0,.61-.31,1.08-.92,1.4-1.04,.48-2.15,.72-3.32,.72-3.89,0-5.84-1.76-5.84-5.28Z" fill="#fff" stroke="#fff" stroke-linecap="round" stroke-miterlimit="10" stroke-width="2"/><path d="M173.39,38.83c-.35-.35-.52-.77-.52-1.28V11.59c0-.51,.17-.94,.52-1.3,.35-.36,.77-.54,1.28-.54s.94,.18,1.3,.54c.36,.36,.54,.79,.54,1.3v10.44c1.01-1.12,2.11-2.01,3.28-2.68,1.17-.67,2.56-1,4.16-1,1.47,0,2.74,.35,3.82,1.04s1.91,1.64,2.48,2.84c.57,1.2,.86,2.52,.86,3.96v11.36c0,.51-.18,.93-.54,1.28-.36,.35-.79,.52-1.3,.52s-.93-.17-1.28-.52-.52-.77-.52-1.28v-10.96c0-3.25-1.47-4.88-4.4-4.88-1.33,0-2.53,.35-3.58,1.04-1.05,.69-2.05,1.63-2.98,2.8v12c0,.51-.18,.93-.54,1.28-.36,.35-.79,.52-1.3,.52s-.93-.17-1.28-.52Z" fill="#fff" stroke="#fff" stroke-linecap="round" stroke-miterlimit="10" stroke-width="2"/><path d="M197.87,13.99c-.4-.4-.6-.88-.6-1.44v-.16c0-.56,.2-1.04,.6-1.44,.4-.4,.88-.6,1.44-.6h.24c.56,0,1.04,.2,1.44,.6,.4,.4,.6,.88,.6,1.44v.16c0,.56-.2,1.04-.6,1.44-.4,.4-.88,.6-1.44,.6h-.24c-.56,0-1.04-.2-1.44-.6Zm.24,24.84c-.35-.35-.52-.77-.52-1.28V20.39c0-.51,.17-.94,.52-1.3,.35-.36,.77-.54,1.28-.54,.53,0,.97,.17,1.32,.52,.35,.35,.52,.79,.52,1.32v17.16c0,.51-.18,.93-.54,1.28-.36,.35-.79,.52-1.3,.52s-.93-.17-1.28-.52Z" fill="#fff" stroke="#fff" stroke-linecap="round" stroke-miterlimit="10" stroke-width="2"/><path d="M223.73,48.03c-.36-.35-.54-.79-.54-1.32v-10.2c-1.95,2.03-4.23,3.04-6.84,3.04-1.65,0-3.22-.42-4.7-1.26-1.48-.84-2.68-2.07-3.6-3.68-.92-1.61-1.38-3.5-1.38-5.66s.46-4.05,1.38-5.66c.92-1.61,2.12-2.84,3.6-3.68s3.05-1.26,4.7-1.26c2.61,0,4.89,1.01,6.84,3.04v-1.04c0-.51,.18-.93,.54-1.28,.36-.35,.79-.52,1.3-.52s.93,.17,1.28,.52c.35,.35,.52,.77,.52,1.28v26.36c0,.51-.17,.94-.52,1.3-.35,.36-.77,.54-1.28,.54s-.94-.17-1.3-.52Zm-3.4-12.7c1.08-.55,2.03-1.27,2.86-2.18v-8.4c-.83-.91-1.78-1.63-2.86-2.18-1.08-.55-2.23-.82-3.46-.82-1.97,0-3.56,.63-4.76,1.88-1.2,1.25-1.8,3.03-1.8,5.32s.6,4.07,1.8,5.32c1.2,1.25,2.79,1.88,4.76,1.88,1.23,0,2.38-.27,3.46-.82Z" fill="#fff" stroke="#fff" stroke-linecap="round" stroke-miterlimit="10" stroke-width="2"/><path d="M236.65,38.51c-1.08-.69-1.91-1.64-2.48-2.84-.57-1.2-.86-2.52-.86-3.96v-11.36c0-.51,.18-.93,.54-1.28,.36-.35,.79-.52,1.3-.52s.93,.17,1.28,.52c.35,.35,.52,.77,.52,1.28v10.96c0,3.25,1.47,4.88,4.4,4.88,1.33,0,2.53-.35,3.58-1.04,1.05-.69,2.05-1.63,2.98-2.8v-12c0-.51,.18-.93,.54-1.28,.36-.35,.79-.52,1.3-.52s.93,.17,1.28,.52c.35,.35,.52,.77,.52,1.28v17.16c0,.51-.17,.94-.52,1.3-.35,.36-.77,.54-1.28,.54s-.94-.18-1.3-.54c-.36-.36-.54-.79-.54-1.3v-1.64c-1.01,1.12-2.11,2.01-3.28,2.68-1.17,.67-2.56,1-4.16,1-1.47,0-2.74-.35-3.82-1.04Z" fill="#fff" stroke="#fff" stroke-linecap="round" stroke-miterlimit="10" stroke-width="2"/><path d="M259.73,36.77c-1.83-1.85-2.74-4.46-2.74-7.82,0-1.89,.35-3.64,1.04-5.24,.69-1.6,1.76-2.89,3.2-3.88,1.44-.99,3.21-1.48,5.32-1.48,1.97,0,3.68,.46,5.12,1.38s2.53,2.15,3.28,3.68c.75,1.53,1.12,3.21,1.12,5.02,0,.51-.17,.93-.5,1.28-.33,.35-.78,.52-1.34,.52h-13.56c.21,1.87,.91,3.32,2.08,4.36,1.17,1.04,2.81,1.56,4.92,1.56,1.12,0,2.1-.11,2.94-.32s1.66-.52,2.46-.92c.21-.11,.45-.16,.72-.16,.43,0,.8,.15,1.12,.44,.32,.29,.48,.67,.48,1.12,0,.59-.35,1.08-1.04,1.48-1.04,.59-2.07,1.03-3.08,1.32-1.01,.29-2.32,.44-3.92,.44-3.25,0-5.79-.93-7.62-2.78Zm12.74-9.5c-.08-1.31-.42-2.4-1.02-3.28-.6-.88-1.34-1.53-2.22-1.94-.88-.41-1.77-.62-2.68-.62s-1.8,.21-2.68,.62c-.88,.41-1.61,1.06-2.2,1.94-.59,.88-.92,1.97-1,3.28h11.8Z" fill="#fff" stroke="#fff" stroke-linecap="round" stroke-miterlimit="10" stroke-width="2"/><path d="M104.79,74.83c-.35-.35-.52-.77-.52-1.28v-22.92h-8.16c-.48,0-.88-.16-1.2-.48s-.48-.72-.48-1.2,.16-.89,.48-1.22c.32-.33,.72-.5,1.2-.5h19.92c.48,0,.89,.17,1.22,.5,.33,.33,.5,.74,.5,1.22s-.17,.88-.5,1.2-.74,.48-1.22,.48h-8.12v22.92c0,.51-.18,.93-.54,1.28s-.79,.52-1.3,.52-.93-.17-1.28-.52Z" fill="#fff" stroke="#fff" stroke-linecap="round" stroke-miterlimit="10" stroke-width="2"/><path d="M119.91,74.83c-.35-.35-.52-.77-.52-1.28v-17.16c0-.51,.17-.94,.52-1.3,.35-.36,.77-.54,1.28-.54s.94,.18,1.3,.54c.36,.36,.54,.79,.54,1.3v1.72c1.87-2.51,3.96-3.76,6.28-3.76h.2c.51,0,.93,.17,1.26,.52,.33,.35,.5,.77,.5,1.28s-.17,.92-.52,1.24c-.35,.32-.79,.48-1.32,.48h-.2c-1.28,0-2.45,.31-3.52,.94-1.07,.63-1.96,1.49-2.68,2.58v12.16c0,.51-.18,.93-.54,1.28-.36,.35-.79,.52-1.3,.52s-.93-.17-1.28-.52Z" fill="#fff" stroke="#fff" stroke-linecap="round" stroke-miterlimit="10" stroke-width="2"/><path d="M135.97,72.77c-1.83-1.85-2.74-4.46-2.74-7.82,0-1.89,.35-3.64,1.04-5.24,.69-1.6,1.76-2.89,3.2-3.88,1.44-.99,3.21-1.48,5.32-1.48,1.97,0,3.68,.46,5.12,1.38s2.53,2.15,3.28,3.68c.75,1.53,1.12,3.21,1.12,5.02,0,.51-.17,.93-.5,1.28-.33,.35-.78,.52-1.34,.52h-13.56c.21,1.87,.91,3.32,2.08,4.36,1.17,1.04,2.81,1.56,4.92,1.56,1.12,0,2.1-.11,2.94-.32s1.66-.52,2.46-.92c.21-.11,.45-.16,.72-.16,.43,0,.8,.15,1.12,.44,.32,.29,.48,.67,.48,1.12,0,.59-.35,1.08-1.04,1.48-1.04,.59-2.07,1.03-3.08,1.32-1.01,.29-2.32,.44-3.92,.44-3.25,0-5.79-.93-7.62-2.78Zm12.74-9.5c-.08-1.31-.42-2.4-1.02-3.28-.6-.88-1.34-1.53-2.22-1.94-.88-.41-1.77-.62-2.68-.62s-1.8,.21-2.68,.62c-.88,.41-1.61,1.06-2.2,1.94-.59,.88-.92,1.97-1,3.28h11.8Z" fill="#fff" stroke="#fff" stroke-linecap="round" stroke-miterlimit="10" stroke-width="2"/><path d="M157.99,74.83c-.35-.35-.52-.77-.52-1.28v-17.16c0-.51,.17-.94,.52-1.3,.35-.36,.77-.54,1.28-.54s.94,.18,1.3,.54c.36,.36,.54,.79,.54,1.3v1.64c1.01-1.12,2.11-2.01,3.28-2.68,1.17-.67,2.56-1,4.16-1,1.47,0,2.74,.35,3.82,1.04s1.91,1.64,2.48,2.84c.57,1.2,.86,2.52,.86,3.96v11.36c0,.51-.18,.93-.54,1.28-.36,.35-.79,.52-1.3,.52s-.93-.17-1.28-.52-.52-.77-.52-1.28v-10.96c0-3.25-1.47-4.88-4.4-4.88-1.33,0-2.53,.35-3.58,1.04-1.05,.69-2.05,1.63-2.98,2.8v12c0,.51-.18,.93-.54,1.28-.36,.35-.79,.52-1.3,.52s-.93-.17-1.28-.52Z" fill="#fff" stroke="#fff" stroke-linecap="round" stroke-miterlimit="10" stroke-width="2"/><path d="M185.93,74.29c-1.48-.84-2.68-2.07-3.6-3.68-.92-1.61-1.38-3.5-1.38-5.66s.46-4.05,1.38-5.66c.92-1.61,2.12-2.84,3.6-3.68s3.05-1.26,4.7-1.26c2.61,0,4.89,1.01,6.84,3.04v-9.8c0-.53,.18-.97,.54-1.32,.36-.35,.79-.52,1.3-.52s.93,.18,1.28,.54c.35,.36,.52,.79,.52,1.3v25.96c0,.51-.17,.93-.52,1.28-.35,.35-.77,.52-1.28,.52s-.94-.17-1.3-.52-.54-.77-.54-1.28v-1.04c-1.95,2.03-4.23,3.04-6.84,3.04-1.65,0-3.22-.42-4.7-1.26Zm8.68-2.96c1.08-.55,2.03-1.27,2.86-2.18v-8.4c-.83-.91-1.78-1.63-2.86-2.18-1.08-.55-2.23-.82-3.46-.82-1.97,0-3.56,.63-4.76,1.88-1.2,1.25-1.8,3.03-1.8,5.32s.6,4.07,1.8,5.32c1.2,1.25,2.79,1.88,4.76,1.88,1.23,0,2.38-.27,3.46-.82Z" fill="#fff" stroke="#fff" stroke-linecap="round" stroke-miterlimit="10" stroke-width="2"/></g></g></g></svg>